<?xml version="1.0" encoding="UTF-8" standalone="no"?>
<!DOCTYPE svg PUBLIC "-//W3C//DTD SVG 1.1//EN" "http://www.w3.org/Graphics/SVG/1.1/DTD/svg11.dtd">
<svg width="100%" height="100%" viewBox="0 0 1920 1080" version="1.1" xmlns="http://www.w3.org/2000/svg" xmlns:xlink="http://www.w3.org/1999/xlink" xml:space="preserve" xmlns:serif="http://www.serif.com/" style="fill-rule:evenodd;clip-rule:evenodd;stroke-linejoin:round;stroke-miterlimit:2;">
    <rect x="56.512" y="30.877" width="366.294" height="171.237" style="fill:rgb(235,235,235);fill-opacity:0.56;"/>
    <g transform="matrix(1,0,0,1,68.5627,70.168)">
        <text x="0px" y="0px" style="font-family:'ArialMT', 'Arial', sans-serif;font-size:33.333px;">$HOME</text>
    </g>
    <g transform="matrix(1,0,0,1,177.358,-255.371)">
        <g>
            <g transform="matrix(1,0,0,1,79.962,323.151)">
                <text x="0px" y="0px" style="font-family:'ArialMT', 'Arial', sans-serif;font-size:33.333px;">$AWAY</text>
            </g>
        </g>
    </g>
    <rect x="82.892" y="98.041" width="104.785" height="85.746" style="fill:rgb(0,38,255);"/>
    <g transform="matrix(1,0,0,1,181.532,-2.91699)">
        <rect x="82.892" y="98.041" width="104.785" height="85.746" style="fill:rgb(0,38,255);"/>
    </g>
    <g transform="matrix(1,0,0,1,-49.4877,-157.905)">
        <g transform="matrix(1,0,0,1,133.334,287.179)">
            <text x="0px" y="0px" style="font-family:'ArialMT', 'Arial', sans-serif;font-size:41.667px;">$HScore</text>
        </g>
    </g>
    <g transform="matrix(1,0,0,1,131.43,-160.858)">
        <g transform="matrix(1,0,0,1,133.334,287.179)">
            <text x="0px" y="0px" style="font-family:'ArialMT', 'Arial', sans-serif;font-size:41.667px;">$AScore</text>
        </g>
    </g>
</svg>
